<svg xmlns="http://www.w3.org/2000/svg" viewBox="0 0 48 48">
  <path fill="#EA4335" d="M24 9.5c3.26 0 6.2 1.13 8.5 3l6.36-6.36C34.91 2.37 29.77 0 24 0 14.62 0 6.51 5.59 2.7 13.71l7.41 5.75C12.37 13.01 17.77 9.5 24 9.5z"></path>
  <path fill="#4285F4" d="M46.5 24c0-1.53-.14-3.01-.41-4.44H24v8.39h12.62c-.54 2.77-2.1 5.12-4.46 6.79l7.02 5.51C43.83 35.2 46.5 30.03 46.5 24z"></path>
  <path fill="#FBBC04" d="M10.11 28.27a14.48 14.48 0 010-8.54l-7.41-5.75a23.962 23.962 0 000 20.04l7.41-5.75z"></path>
  <path fill="#34A853" d="M24 46c6.45 0 11.87-2.12 15.82-5.75l-7.02-5.51c-2.02 1.39-4.63 2.21-8.8 2.21-6.23 0-11.63-3.51-13.89-8.91l-7.41 5.75C6.51 42.41 14.62 48 24 48z"></path>
</svg>
